# ProBuilder 5.1.0
# https://unity3d.com/unity/features/worldbuilding/probuilder
# 08.08.2023 12:11:25

mtllib ./Block.mtl
o Block

g Block
v -2.94575 -0.5 0.5356708
v -2.993961 -0.5 0
v -2.94575 0.5 0.5356708
v -2.993961 0.5 0
v -2.563961 -0.5 0
v -2.52266 -0.5 0.4588912
v -2.563961 0.5 0
v -2.52266 0.5 0.4588912
v -2.802666 -0.5 1.054124
v -2.802666 0.5 1.054124
v -2.400085 -0.5 0.9030333
v -2.400085 0.5 0.9030333
v -2.569308 -0.5 1.538698
v -2.569308 0.5 1.538698
v -2.200175 -0.5 1.318151
v -2.200175 0.5 1.318151
v -2.253176 -0.5 1.973816
v -2.253176 0.5 1.973816
v -1.929355 -0.5 1.690902
v -1.929355 0.5 1.690902
v -1.864431 -0.5 2.345494
v -1.864431 0.5 2.345494
v -1.59633 -0.5 2.009307
v -1.59633 0.5 2.009307
v -1.415568 -0.5 2.641787
v -1.415568 0.5 2.641787
v -1.211804 -0.5 2.26313
v -1.211804 0.5 2.26313
v -0.9210125 -0.5 2.85317
v -0.9210125 0.5 2.85317
v -0.7881352 -0.5 2.444215
v -0.7881352 0.5 2.444215
v -0.3966614 -0.5 2.972849
v -0.3966614 0.5 2.972849
v -0.338941 -0.5 2.546741
v -0.338941 0.5 2.546741
v 0.140633 -0.5 2.996979
v 0.140633 0.5 2.996979
v 0.1213411 -0.5 2.567412
v 0.1213411 0.5 2.567412
v 0.673601 -0.5 2.924784
v 0.673601 0.5 2.924784
v 0.577917 -0.5 2.505565
v 0.577917 0.5 2.505565
v 1.185114 -0.5 2.758583
v 1.185114 0.5 2.758583
v 1.016113 -0.5 2.363186
v 1.016113 0.5 2.363186
v 1.658729 -0.5 2.50372
v 1.658729 0.5 2.50372
v 1.421844 -0.5 2.144853
v 1.421844 0.5 2.144853
v 2.079226 -0.5 2.168385
v 2.079226 0.5 2.168385
v 1.782069 -0.5 1.857583
v 1.782069 0.5 1.857583
v 2.43309 -0.5 1.763355
v 2.43309 0.5 1.763355
v 2.085212 -0.5 1.510608
v 2.085212 0.5 1.510608
v 2.708945 -0.5 1.301651
v 2.708945 0.5 1.301651
v 2.321528 -0.5 1.115081
v 2.321528 0.5 1.115081
v 2.897927 -0.5 0.7981105
v 2.897927 0.5 0.7981105
v 2.483423 -0.5 0.6837149
v 2.483423 0.5 0.6837149
v 2.993961 -0.5 0.2689178
v 2.993961 0.5 0.2689178
v 2.565692 -0.5 0.2303729
v 2.565692 0.5 0.2303729
v 2.993961 -0.5 -0.2689176
v 2.993961 0.5 -0.2689176
v 2.565692 -0.5 -0.2303727
v 2.565692 0.5 -0.2303727
v 2.897927 -0.5 -0.7981105
v 2.897927 0.5 -0.7981105
v 2.483423 -0.5 -0.6837149
v 2.483423 0.5 -0.6837149
v 2.708945 -0.5 -1.301651
v 2.708945 0.5 -1.301651
v 2.321529 -0.5 -1.115081
v 2.321529 0.5 -1.115081
v 2.43309 -0.5 -1.763355
v 2.43309 0.5 -1.763355
v 2.085212 -0.5 -1.510608
v 2.085212 0.5 -1.510608
v 2.079226 -0.5 -2.168385
v 2.079226 0.5 -2.168385
v 1.782069 -0.5 -1.857583
v 1.782069 0.5 -1.857583
v 1.65873 -0.5 -2.503719
v 1.65873 0.5 -2.503719
v 1.421844 -0.5 -2.144853
v 1.421844 0.5 -2.144853
v 1.185114 -0.5 -2.758583
v 1.185114 0.5 -2.758583
v 1.016113 -0.5 -2.363186
v 1.016113 0.5 -2.363186
v 0.6736015 -0.5 -2.924784
v 0.6736015 0.5 -2.924784
v 0.5779175 -0.5 -2.505565
v 0.5779175 0.5 -2.505565
v 0.1406344 -0.5 -2.996979
v 0.1406344 0.5 -2.996979
v 0.1213423 -0.5 -2.567412
v 0.1213423 0.5 -2.567412
v -0.3966614 -0.5 -2.972849
v -0.3966614 0.5 -2.972849
v -0.3389412 -0.5 -2.546741
v -0.3389412 0.5 -2.546741
v -0.921013 -0.5 -2.853169
v -0.921013 0.5 -2.853169
v -0.7881356 -0.5 -2.444215
v -0.7881356 0.5 -2.444215
v -1.415567 -0.5 -2.641787
v -1.415567 0.5 -2.641787
v -1.211804 -0.5 -2.263131
v -1.211804 0.5 -2.263131
v -1.864432 -0.5 -2.345494
v -1.864432 0.5 -2.345494
v -1.596331 -0.5 -2.009306
v -1.596331 0.5 -2.009306
v -2.253176 -0.5 -1.973816
v -2.253176 0.5 -1.973816
v -1.929355 -0.5 -1.690903
v -1.929355 0.5 -1.690903
v -2.569307 -0.5 -1.538698
v -2.569307 0.5 -1.538698
v -2.200174 -0.5 -1.318151
v -2.200174 0.5 -1.318151
v -2.802666 -0.5 -1.054126
v -2.802666 0.5 -1.054126
v -2.400084 -0.5 -0.9030342
v -2.400084 0.5 -0.9030342
v -2.94575 -0.5 -0.5356703
v -2.94575 0.5 -0.5356703
v -2.52266 -0.5 -0.4588909
v -2.52266 0.5 -0.4588909

vt 0.2694601 -0.5
vt -0.2683758 -0.5
vt 0.2694601 0.5
vt -0.2683758 0.5
vt 0.2298307 -0.5
vt -0.2309153 -0.5
vt 0.2298307 0.5
vt -0.2309153 0.5
vt 0.2705221 -0.5
vt -0.2673137 -0.5
vt 0.2705221 0.5
vt -0.2673137 0.5
vt 0.2287657 -0.5
vt -0.2319803 -0.5
vt 0.2287657 0.5
vt -0.2319803 0.5
vt 0.2715399 -0.5
vt -0.2662959 -0.5
vt 0.2715399 0.5
vt -0.2662959 0.5
vt 0.227753 -0.5
vt -0.2329929 -0.5
vt 0.227753 0.5
vt -0.2329929 0.5
vt 0.2724669 -0.5
vt -0.265369 -0.5
vt 0.2724669 0.5
vt -0.265369 0.5
vt 0.2268226 -0.5
vt -0.2339234 -0.5
vt 0.2268226 0.5
vt -0.2339234 0.5
vt 0.2732827 -0.5
vt -0.2645528 -0.5
vt 0.2732827 0.5
vt -0.2645528 0.5
vt 0.2260097 -0.5
vt -0.2347363 -0.5
vt 0.2260097 0.5
vt -0.2347363 0.5
vt 0.273958 -0.5
vt -0.263878 -0.5
vt 0.273958 0.5
vt -0.263878 0.5
vt 0.2253327 -0.5
vt -0.2354134 -0.5
vt 0.2253327 0.5
vt -0.2354134 0.5
vt 0.2744713 -0.5
vt -0.2633646 -0.5
vt 0.2744713 0.5
vt -0.2633646 0.5
vt 0.22482 -0.5
vt -0.2359262 -0.5
vt 0.22482 0.5
vt -0.2359262 0.5
vt 0.2748048 -0.5
vt 0.2748048 0.5
vt 0.2244855 -0.5
vt -0.2362605 -0.5
vt 0.2244855 0.5
vt -0.2362605 0.5
vt -0.2628859 -0.5
vt -0.2628859 0.5
vt -0.2641967 -0.5
vt -0.2641967 0.5
vt 0.2256524 -0.5
vt 0.2256524 0.5
vt 0.2728916 -0.5
vt 0.2728916 0.5
vt -0.234346 -0.5
vt -0.234346 0.5
vt -0.2658213 -0.5
vt -0.2658213 0.5
vt 0.2272765 -0.5
vt -0.2334696 -0.5
vt 0.2272765 0.5
vt -0.2334696 0.5
vt 0.2710408 -0.5
vt -0.2667947 -0.5
vt 0.2710408 0.5
vt -0.2667947 0.5
vt 0.2282486 -0.5
vt -0.232497 -0.5
vt 0.2282486 0.5
vt -0.232497 0.5
vt 0.2699948 -0.5
vt -0.2678411 -0.5
vt 0.2699948 0.5
vt -0.2678411 0.5
vt 0.2292963 -0.5
vt -0.23145 -0.5
vt 0.2292963 0.5
vt -0.23145 0.5
vt 0.2689176 -0.5
vt -0.2689178 -0.5
vt 0.2689176 0.5
vt -0.2689178 0.5
vt 0.2303729 -0.5
vt -0.2303727 -0.5
vt 0.2303729 0.5
vt -0.2303727 0.5
vt 0.2678413 -0.5
vt -0.2699949 -0.5
vt 0.2678413 0.5
vt -0.2699949 0.5
vt 0.23145 -0.5
vt -0.2292965 -0.5
vt 0.23145 0.5
vt -0.2292965 0.5
vt 0.266794 -0.5
vt -0.2710413 -0.5
vt 0.266794 0.5
vt -0.2710413 0.5
vt 0.2324945 -0.5
vt -0.228251 -0.5
vt 0.2324945 0.5
vt -0.228251 0.5
vt 0.2658211 -0.5
vt -0.2720149 -0.5
vt 0.2658211 0.5
vt -0.2720149 0.5
vt 0.2334725 -0.5
vt -0.2272738 -0.5
vt 0.2334725 0.5
vt -0.2272738 0.5
vt 0.2649461 -0.5
vt -0.2728909 -0.5
vt 0.2649461 0.5
vt -0.2728909 0.5
vt 0.2343451 -0.5
vt -0.2264016 -0.5
vt 0.2343451 0.5
vt -0.2264016 0.5
vt 0.2641961 -0.5
vt -0.2736383 -0.5
vt 0.2641961 0.5
vt -0.2736383 0.5
vt 0.2350947 -0.5
vt -0.2256502 -0.5
vt 0.2350947 0.5
vt -0.2256502 0.5
vt 0.2636001 -0.5
vt -0.2742361 -0.5
vt 0.2636001 0.5
vt -0.2742361 0.5
vt 0.2356914 -0.5
vt -0.2250549 -0.5
vt 0.2356914 0.5
vt -0.2250549 0.5
vt 0.2631755 -0.5
vt -0.2746606 -0.5
vt 0.2631755 0.5
vt -0.2746606 0.5
vt 0.2361144 -0.5
vt -0.224632 -0.5
vt 0.2361144 0.5
vt -0.224632 0.5
vt 0.262934 -0.5
vt 0.262934 0.5
vt -0.2243901 -0.5
vt -0.2243901 0.5
vt -0.2732833 -0.5
vt -0.2732833 0.5
vt 0.2347375 -0.5
vt 0.2347375 0.5
vt 0.2653668 -0.5
vt 0.2653668 0.5
vt 0.2339231 -0.5
vt -0.2268227 -0.5
vt 0.2339231 0.5
vt -0.2268227 0.5
vt 0.2662996 -0.5
vt -0.2715355 -0.5
vt 0.2662996 0.5
vt -0.2715355 0.5
vt 0.2329925 -0.5
vt -0.227753 -0.5
vt 0.2329925 0.5
vt -0.227753 0.5
vt 0.2673114 -0.5
vt -0.2705263 -0.5
vt 0.2673114 0.5
vt -0.2705263 0.5
vt 0.2319805 -0.5
vt -0.2287668 -0.5
vt 0.2319805 0.5
vt -0.2287668 0.5
vt 0.2683761 -0.5
vt -0.2694594 -0.5
vt 0.2683761 0.5
vt -0.2694594 0.5
vt 0.2309149 -0.5
vt -0.2298308 -0.5
vt 0.2309149 0.5
vt -0.2298308 0.5
vt -2.993961 0
vt -2.94575 0.5356708
vt -2.563961 0
vt -2.52266 0.4588912
vt 2.94575 0.5356708
vt 2.993961 0
vt 2.52266 0.4588912
vt 2.563961 0
vt -2.802666 1.054124
vt -2.400085 0.9030333
vt 2.802666 1.054124
vt 2.400085 0.9030333
vt -2.569308 1.538698
vt -2.200175 1.318151
vt 2.569308 1.538698
vt 2.200175 1.318151
vt -2.253176 1.973816
vt -1.929355 1.690902
vt 2.253176 1.973816
vt 1.929355 1.690902
vt -1.864431 2.345494
vt -1.59633 2.009307
vt 1.864431 2.345494
vt 1.59633 2.009307
vt -1.415568 2.641787
vt -1.211804 2.26313
vt 1.415568 2.641787
vt 1.211804 2.26313
vt -0.9210125 2.85317
vt -0.7881352 2.444215
vt 0.9210125 2.85317
vt 0.7881352 2.444215
vt -0.3966614 2.972849
vt -0.338941 2.546741
vt 0.3966614 2.972849
vt 0.338941 2.546741
vt 0.140633 2.996979
vt 0.1213411 2.567412
vt -0.140633 2.996979
vt -0.1213411 2.567412
vt 0.673601 2.924784
vt 0.577917 2.505565
vt -0.673601 2.924784
vt -0.577917 2.505565
vt 1.185114 2.758583
vt 1.016113 2.363186
vt -1.185114 2.758583
vt -1.016113 2.363186
vt 1.658729 2.50372
vt 1.421844 2.144853
vt -1.658729 2.50372
vt -1.421844 2.144853
vt 2.079226 2.168385
vt 1.782069 1.857583
vt -2.079226 2.168385
vt -1.782069 1.857583
vt 2.43309 1.763355
vt 2.085212 1.510608
vt -2.43309 1.763355
vt -2.085212 1.510608
vt 2.708945 1.301651
vt 2.321528 1.115081
vt -2.708945 1.301651
vt -2.321528 1.115081
vt 2.897927 0.7981105
vt 2.483423 0.6837149
vt -2.897927 0.7981105
vt -2.483423 0.6837149
vt 2.993961 0.2689178
vt 2.565692 0.2303729
vt -2.993961 0.2689178
vt -2.565692 0.2303729
vt 2.993961 -0.2689176
vt 2.565692 -0.2303727
vt -2.993961 -0.2689176
vt -2.565692 -0.2303727
vt 2.897927 -0.7981105
vt 2.483423 -0.6837149
vt -2.897927 -0.7981105
vt -2.483423 -0.6837149
vt 2.708945 -1.301651
vt 2.321529 -1.115081
vt -2.708945 -1.301651
vt -2.321529 -1.115081
vt 2.43309 -1.763355
vt 2.085212 -1.510608
vt -2.43309 -1.763355
vt -2.085212 -1.510608
vt 2.079226 -2.168385
vt 1.782069 -1.857583
vt -2.079226 -2.168385
vt -1.782069 -1.857583
vt 1.65873 -2.503719
vt 1.421844 -2.144853
vt -1.65873 -2.503719
vt -1.421844 -2.144853
vt 1.185114 -2.758583
vt 1.016113 -2.363186
vt -1.185114 -2.758583
vt -1.016113 -2.363186
vt 0.6736015 -2.924784
vt 0.5779175 -2.505565
vt -0.6736015 -2.924784
vt -0.5779175 -2.505565
vt 0.1406344 -2.996979
vt 0.1213423 -2.567412
vt -0.1406344 -2.996979
vt -0.1213423 -2.567412
vt -0.3966614 -2.972849
vt -0.3389412 -2.546741
vt 0.3966614 -2.972849
vt 0.3389412 -2.546741
vt -0.921013 -2.853169
vt -0.7881356 -2.444215
vt 0.921013 -2.853169
vt 0.7881356 -2.444215
vt -1.415567 -2.641787
vt -1.211804 -2.263131
vt 1.415567 -2.641787
vt 1.211804 -2.263131
vt -1.864432 -2.345494
vt -1.596331 -2.009306
vt 1.864432 -2.345494
vt 1.596331 -2.009306
vt -2.253176 -1.973816
vt -1.929355 -1.690903
vt 2.253176 -1.973816
vt 1.929355 -1.690903
vt -2.569307 -1.538698
vt -2.200174 -1.318151
vt 2.569307 -1.538698
vt 2.200174 -1.318151
vt -2.802666 -1.054126
vt -2.400084 -0.9030342
vt 2.802666 -1.054126
vt 2.400084 -0.9030342
vt -2.94575 -0.5356703
vt -2.52266 -0.4588909
vt 2.94575 -0.5356703
vt 2.52266 -0.4588909

vn -0.9959744 0 0.08963905
vn 0.9959744 0 -0.08963893
vn -0.9639627 0 0.2660376
vn 0.963963 0 -0.2660365
vn -0.9009691 0 0.4338832
vn 0.9009688 0 -0.4338837
vn -0.8090169 0 0.5877854
vn 0.8090172 0 -0.5877849
vn -0.6910627 0 0.7227948
vn 0.6910623 0 -0.7227952
vn -0.5508971 0 0.8345731
vn 0.5508973 0 -0.8345731
vn -0.3930253 0 0.9195277
vn 0.3930252 0 -0.9195277
vn -0.2225209 0 0.9749279
vn 0.2225211 0 -0.9749279
vn -0.04486474 0 0.9989931
vn 0.04486448 0 -0.9989931
vn 0.134233 0 0.9909497
vn -0.1342328 0 -0.9909499
vn 0.3090175 0 0.9510564
vn -0.3090175 0 -0.9510564
vn 0.4738684 0 0.8805957
vn -0.4738684 0 -0.8805957
vn 0.6234897 0 0.7818315
vn -0.6234899 0 -0.7818314
vn 0.7530714 0 0.6579388
vn -0.7530715 0 -0.6579387
vn 0.858449 0 0.512899
vn -0.858449 0 -0.512899
vn 0.9362348 0 0.3513751
vn -0.9362346 0 -0.3513757
vn 0.9839297 0 0.1785564
vn -0.9839297 0 -0.1785564
vn 1 0 0
vn -1 0 0
vn 0.9839297 0 -0.1785564
vn -0.9839297 0 0.1785563
vn 0.9362347 0 -0.3513753
vn -0.9362349 0 0.3513747
vn 0.858449 0 -0.512899
vn -0.8584484 0 0.5128999
vn 0.7530716 0 -0.6579386
vn -0.7530718 0 0.6579384
vn 0.6234899 0 -0.7818315
vn -0.6234896 0 0.7818317
vn 0.4738687 0 -0.8805955
vn -0.4738686 0 0.8805956
vn 0.3090172 0 -0.9510564
vn -0.3090178 0 0.9510563
vn 0.1342337 0 -0.9909497
vn -0.1342341 0 0.9909496
vn -0.04486462 0 -0.9989931
vn 0.04486486 0 0.9989931
vn -0.2225211 0 -0.9749279
vn 0.2225219 0 0.9749277
vn -0.3930251 0 -0.9195278
vn 0.3930238 0 0.9195283
vn -0.5508965 0 -0.8345735
vn 0.5508978 0 0.8345727
vn -0.691063 0 -0.7227946
vn 0.6910628 0 0.7227947
vn -0.8090172 0 -0.5877849
vn 0.8090171 0 0.5877851
vn -0.9009684 0 -0.4338847
vn 0.9009687 0 0.4338841
vn -0.9639629 0 -0.2660367
vn 0.9639629 0 0.2660368
vn -0.9959744 0 -0.08963913
vn 0.9959744 0 0.08963897
vn 0 -1 0
vn 0 1 0

usemtl Lit
f 3/3/1 4/4/1 2/2/1 1/1/1
f 7/7/2 8/8/2 6/6/2 5/5/2
f 10/11/3 3/12/3 1/10/3 9/9/3
f 8/15/4 12/16/4 11/14/4 6/13/4
f 14/19/5 10/20/5 9/18/5 13/17/5
f 12/23/6 16/24/6 15/22/6 11/21/6
f 18/27/7 14/28/7 13/26/7 17/25/7
f 16/31/8 20/32/8 19/30/8 15/29/8
f 22/35/9 18/36/9 17/34/9 21/33/9
f 20/39/10 24/40/10 23/38/10 19/37/10
f 26/43/11 22/44/11 21/42/11 25/41/11
f 24/47/12 28/48/12 27/46/12 23/45/12
f 30/51/13 26/52/13 25/50/13 29/49/13
f 28/55/14 32/56/14 31/54/14 27/53/14
f 34/58/15 30/52/15 29/50/15 33/57/15
f 32/61/16 36/62/16 35/60/16 31/59/16
f 38/58/17 34/64/17 33/63/17 37/57/17
f 36/61/18 40/62/18 39/60/18 35/59/18
f 42/58/19 38/64/19 37/63/19 41/57/19
f 40/61/20 44/62/20 43/60/20 39/59/20
f 46/58/21 42/52/21 41/50/21 45/57/21
f 44/55/22 48/62/22 47/60/22 43/53/22
f 50/51/23 46/44/23 45/42/23 49/49/23
f 48/47/24 52/56/24 51/54/24 47/45/24
f 54/43/25 50/66/25 49/65/25 53/41/25
f 52/68/26 56/48/26 55/46/26 51/67/26
f 58/70/27 54/36/27 53/34/27 57/69/27
f 56/39/28 60/72/28 59/71/28 55/37/28
f 62/27/29 58/74/29 57/73/29 61/25/29
f 60/77/30 64/78/30 63/76/30 59/75/30
f 66/81/31 62/82/31 61/80/31 65/79/31
f 64/85/32 68/86/32 67/84/32 63/83/32
f 70/89/33 66/90/33 65/88/33 69/87/33
f 68/93/34 72/94/34 71/92/34 67/91/34
f 74/97/35 70/98/35 69/96/35 73/95/35
f 72/101/36 76/102/36 75/100/36 71/99/36
f 78/105/37 74/106/37 73/104/37 77/103/37
f 76/109/38 80/110/38 79/108/38 75/107/38
f 82/113/39 78/114/39 77/112/39 81/111/39
f 80/117/40 84/118/40 83/116/40 79/115/40
f 86/121/41 82/122/41 81/120/41 85/119/41
f 84/125/42 88/126/42 87/124/42 83/123/42
f 90/129/43 86/130/43 85/128/43 89/127/43
f 88/133/44 92/134/44 91/132/44 87/131/44
f 94/137/45 90/138/45 89/136/45 93/135/45
f 92/141/46 96/142/46 95/140/46 91/139/46
f 98/145/47 94/146/47 93/144/47 97/143/47
f 96/149/48 100/150/48 99/148/48 95/147/48
f 102/153/49 98/154/49 97/152/49 101/151/49
f 100/157/50 104/158/50 103/156/50 99/155/50
f 106/160/51 102/154/51 101/152/51 105/159/51
f 104/157/52 108/162/52 107/161/52 103/155/52
f 110/160/53 106/154/53 105/152/53 109/159/53
f 108/157/54 112/162/54 111/161/54 107/155/54
f 114/153/55 110/154/55 109/152/55 113/151/55
f 112/157/56 116/162/56 115/161/56 111/155/56
f 118/153/57 114/146/57 113/144/57 117/151/57
f 116/149/58 120/158/58 119/156/58 115/147/58
f 122/145/59 118/138/59 117/136/59 121/143/59
f 120/141/60 124/150/60 123/148/60 119/139/60
f 126/129/61 122/164/61 121/163/61 125/127/61
f 124/166/62 128/134/62 127/132/62 123/165/62
f 130/168/63 126/122/63 125/120/63 129/167/63
f 128/171/64 132/172/64 131/170/64 127/169/64
f 134/175/65 130/176/65 129/174/65 133/173/65
f 132/179/66 136/180/66 135/178/66 131/177/66
f 138/183/67 134/184/67 133/182/67 137/181/67
f 136/187/68 140/188/68 139/186/68 135/185/68
f 4/191/69 138/192/69 137/190/69 2/189/69
f 140/195/70 7/196/70 5/194/70 139/193/70
f 5/199/71 6/200/71 1/198/71 2/197/71
f 8/203/72 7/204/72 4/202/72 3/201/72
f 6/200/71 11/206/71 9/205/71 1/198/71
f 12/208/72 8/203/72 3/201/72 10/207/72
f 11/206/71 15/210/71 13/209/71 9/205/71
f 16/212/72 12/208/72 10/207/72 14/211/72
f 15/210/71 19/214/71 17/213/71 13/209/71
f 20/216/72 16/212/72 14/211/72 18/215/72
f 19/214/71 23/218/71 21/217/71 17/213/71
f 24/220/72 20/216/72 18/215/72 22/219/72
f 23/218/71 27/222/71 25/221/71 21/217/71
f 28/224/72 24/220/72 22/219/72 26/223/72
f 27/222/71 31/226/71 29/225/71 25/221/71
f 32/228/72 28/224/72 26/223/72 30/227/72
f 31/226/71 35/230/71 33/229/71 29/225/71
f 36/232/72 32/228/72 30/227/72 34/231/72
f 35/230/71 39/234/71 37/233/71 33/229/71
f 40/236/72 36/232/72 34/231/72 38/235/72
f 39/234/71 43/238/71 41/237/71 37/233/71
f 44/240/72 40/236/72 38/235/72 42/239/72
f 43/238/71 47/242/71 45/241/71 41/237/71
f 48/244/72 44/240/72 42/239/72 46/243/72
f 47/242/71 51/246/71 49/245/71 45/241/71
f 52/248/72 48/244/72 46/243/72 50/247/72
f 51/246/71 55/250/71 53/249/71 49/245/71
f 56/252/72 52/248/72 50/247/72 54/251/72
f 55/250/71 59/254/71 57/253/71 53/249/71
f 60/256/72 56/252/72 54/251/72 58/255/72
f 59/254/71 63/258/71 61/257/71 57/253/71
f 64/260/72 60/256/72 58/255/72 62/259/72
f 63/258/71 67/262/71 65/261/71 61/257/71
f 68/264/72 64/260/72 62/259/72 66/263/72
f 67/262/71 71/266/71 69/265/71 65/261/71
f 72/268/72 68/264/72 66/263/72 70/267/72
f 71/266/71 75/270/71 73/269/71 69/265/71
f 76/272/72 72/268/72 70/267/72 74/271/72
f 75/270/71 79/274/71 77/273/71 73/269/71
f 80/276/72 76/272/72 74/271/72 78/275/72
f 79/274/71 83/278/71 81/277/71 77/273/71
f 84/280/72 80/276/72 78/275/72 82/279/72
f 83/278/71 87/282/71 85/281/71 81/277/71
f 88/284/72 84/280/72 82/279/72 86/283/72
f 87/282/71 91/286/71 89/285/71 85/281/71
f 92/288/72 88/284/72 86/283/72 90/287/72
f 91/286/71 95/290/71 93/289/71 89/285/71
f 96/292/72 92/288/72 90/287/72 94/291/72
f 95/290/71 99/294/71 97/293/71 93/289/71
f 100/296/72 96/292/72 94/291/72 98/295/72
f 99/294/71 103/298/71 101/297/71 97/293/71
f 104/300/72 100/296/72 98/295/72 102/299/72
f 103/298/71 107/302/71 105/301/71 101/297/71
f 108/304/72 104/300/72 102/299/72 106/303/72
f 107/302/71 111/306/71 109/305/71 105/301/71
f 112/308/72 108/304/72 106/303/72 110/307/72
f 111/306/71 115/310/71 113/309/71 109/305/71
f 116/312/72 112/308/72 110/307/72 114/311/72
f 115/310/71 119/314/71 117/313/71 113/309/71
f 120/316/72 116/312/72 114/311/72 118/315/72
f 119/314/71 123/318/71 121/317/71 117/313/71
f 124/320/72 120/316/72 118/315/72 122/319/72
f 123/318/71 127/322/71 125/321/71 121/317/71
f 128/324/72 124/320/72 122/319/72 126/323/72
f 127/322/71 131/326/71 129/325/71 125/321/71
f 132/328/72 128/324/72 126/323/72 130/327/72
f 131/326/71 135/330/71 133/329/71 129/325/71
f 136/332/72 132/328/72 130/327/72 134/331/72
f 135/330/71 139/334/71 137/333/71 133/329/71
f 140/336/72 136/332/72 134/331/72 138/335/72
f 139/334/71 5/199/71 2/197/71 137/333/71
f 7/204/72 140/336/72 138/335/72 4/202/72

